<?xml version="1.0" encoding="UTF-8"?><svg id="Layer_1" xmlns="http://www.w3.org/2000/svg" viewBox="0 0 800 148"><defs><style>.cls-1{fill:#163029;}.cls-2{fill:#aaff04;}</style></defs><path class="cls-1" d="M158.64,2.29h30.81v57.33h60.11V2.29h30.82v143.12h-30.82v-58.16h-60.11v58.16h-30.81V2.29Z"/><path class="cls-1" d="M299.8,2.29h95v27.63h-64.18v29.7h65.21v27.63h-65.21v30.53h65.21v27.63h-96.03V2.29Z"/><polygon class="cls-1" points="677.13 2.29 637.93 2.29 579.74 73.75 637.94 145.26 676.26 145.4 618.95 73.76 677.13 2.29"/><polygon class="cls-1" points="575.76 145.4 543.62 145.4 543.62 34.24 575.76 73.74 575.76 145.4"/><polygon class="cls-1" points="544.79 2.29 505.59 2.29 447.4 73.75 505.6 145.26 543.92 145.4 486.61 73.76 544.79 2.29"/><polygon class="cls-1" points="443.42 145.4 411.28 145.4 411.28 34.24 443.42 73.74 443.42 145.4"/><path class="cls-1" d="M108.67,100.65h35.97c-9.89,27.98-37.08,46.97-69.48,46.97C32.53,147.63.4,115.91.4,73.84S32.53.07,75.16.07c32.89,0,60.43,19.56,69.75,48.52h-35.27c-7.04-11.21-19.83-18.15-34.48-18.15-24.3,0-42.61,18.66-42.61,43.4s18.31,43.42,42.61,43.42c13.92,0,26.19-6.26,33.51-16.61Z"/><path class="cls-2" d="M741.93,83.71l39.52,48.43c-10.62,9.86-25.11,15.74-41.66,15.74-33.75,0-59.73-24.84-59.73-58.02V2.28h61.87v21.16l57.54,70.54c-.68,10.38-3.93,19.88-9.24,27.85l-48.3-59.24v21.13ZM799.6,2.29v70.6S742.03,2.29,742.03,2.29h57.57Z"/></svg>